<svg xmlns="http://www.w3.org/2000/svg" width="256" height="256" viewBox="0 0 32 32">
  <rect width="32" height="32" fill="#0a0a0a"/>
  <rect x="1" y="1" width="30" height="30" fill="none" stroke="#00ff41" stroke-width="1"/>

  <!-- owl body (rounded) -->
  <rect x="9" y="7" width="14" height="1" fill="#00ff41"/>
  <rect x="8" y="8" width="1" height="14" fill="#00ff41"/>
  <rect x="23" y="8" width="1" height="14" fill="#00ff41"/>
  <rect x="9" y="22" width="14" height="1" fill="#00ff41"/>

  <!-- ear tufts -->
  <rect x="10" y="5" width="2" height="2" fill="#00ff41"/>
  <rect x="20" y="5" width="2" height="2" fill="#00ff41"/>

  <!-- eyes (big round) -->
  <rect x="11" y="9" width="4" height="1" fill="#00ff41"/>
  <rect x="10" y="10" width="1" height="4" fill="#00ff41"/>
  <rect x="15" y="10" width="1" height="4" fill="#00ff41"/>
  <rect x="11" y="14" width="4" height="1" fill="#00ff41"/>
  <rect x="11" y="11" width="3" height="2" fill="#00ff41"/>
  <rect x="12" y="11" width="2" height="2" fill="#0a0a0a"/>

  <rect x="17" y="9" width="4" height="1" fill="#00ff41"/>
  <rect x="16" y="10" width="1" height="4" fill="#00ff41"/>
  <rect x="21" y="10" width="1" height="4" fill="#00ff41"/>
  <rect x="17" y="14" width="4" height="1" fill="#00ff41"/>
  <rect x="18" y="11" width="3" height="2" fill="#00ff41"/>
  <rect x="19" y="11" width="2" height="2" fill="#0a0a0a"/>

  <!-- beak -->
  <rect x="15" y="15" width="2" height="1" fill="#00ff41"/>
  <rect x="15" y="16" width="2" height="2" fill="#00cc33"/>

  <!-- wing pattern -->
  <rect x="10" y="18" width="3" height="1" fill="#00cc33"/>
  <rect x="11" y="19" width="2" height="1" fill="#00cc33"/>
  <rect x="12" y="20" width="1" height="1" fill="#00cc33"/>

  <rect x="19" y="18" width="3" height="1" fill="#00cc33"/>
  <rect x="19" y="19" width="2" height="1" fill="#00cc33"/>
  <rect x="19" y="20" width="1" height="1" fill="#00cc33"/>

  <!-- feet/talons -->
  <rect x="11" y="23" width="3" height="1" fill="#00ff41"/>
  <rect x="10" y="24" width="2" height="1" fill="#00ff41"/>
  <rect x="13" y="24" width="2" height="1" fill="#00ff41"/>

  <rect x="18" y="23" width="3" height="1" fill="#00ff41"/>
  <rect x="18" y="24" width="2" height="1" fill="#00ff41"/>
  <rect x="21" y="24" width="2" height="1" fill="#00ff41"/>
</svg>
