<svg xmlns="http://www.w3.org/2000/svg" width="256" height="256" viewBox="0 0 32 32">
  <rect width="32" height="32" fill="#0a0a0a"/>
  <rect x="1" y="1" width="30" height="30" fill="none" stroke="#00ff41" stroke-width="1"/>

  <!-- ear tufts (wide, cat-like) -->
  <rect x="9"  y="5" width="4" height="1" fill="#00ff41"/>
  <rect x="9"  y="6" width="3" height="1" fill="#00ff41"/>
  <rect x="9"  y="7" width="2" height="1" fill="#00ff41"/>

  <rect x="19" y="5" width="4" height="1" fill="#00ff41"/>
  <rect x="20" y="6" width="3" height="1" fill="#00ff41"/>
  <rect x="21" y="7" width="2" height="1" fill="#00ff41"/>

  <!-- round head -->
  <rect x="9"  y="8"  width="14" height="1" fill="#00ff41"/>
  <rect x="8"  y="9"  width="1"  height="10" fill="#00ff41"/>
  <rect x="23" y="9"  width="1"  height="10" fill="#00ff41"/>
  <rect x="9"  y="19" width="14" height="1" fill="#00ff41"/>

  <!-- facial disc (lighter inner area) -->
  <rect x="10" y="10" width="12" height="8" fill="#00cc33"/>

  <!-- left eye -->
  <rect x="11" y="11" width="4" height="1" fill="#00ff41"/>
  <rect x="10" y="12" width="1" height="3" fill="#00ff41"/>
  <rect x="15" y="12" width="1" height="3" fill="#00ff41"/>
  <rect x="11" y="15" width="4" height="1" fill="#00ff41"/>
  <rect x="11" y="12" width="4" height="3" fill="#00ff41"/>
  <rect x="12" y="12" width="2" height="3" fill="#0a0a0a"/>
  <rect x="11" y="12" width="1" height="1" fill="#00ff41"/>

  <!-- right eye -->
  <rect x="17" y="11" width="4" height="1" fill="#00ff41"/>
  <rect x="16" y="12" width="1" height="3" fill="#00ff41"/>
  <rect x="21" y="12" width="1" height="3" fill="#00ff41"/>
  <rect x="17" y="15" width="4" height="1" fill="#00ff41"/>
  <rect x="17" y="12" width="4" height="3" fill="#00ff41"/>
  <rect x="18" y="12" width="2" height="3" fill="#0a0a0a"/>
  <rect x="17" y="12" width="1" height="1" fill="#00ff41"/>

  <!-- beak -->
  <rect x="15" y="16" width="2" height="2" fill="#00ff41"/>

  <!-- body (rounded barrel shape) -->
  <rect x="10" y="20" width="12" height="1" fill="#00ff41"/>
  <rect x="9"  y="21" width="1"  height="5" fill="#00ff41"/>
  <rect x="22" y="21" width="1"  height="5" fill="#00ff41"/>
  <rect x="10" y="26" width="12" height="1" fill="#00ff41"/>

  <!-- belly stripes -->
  <rect x="14" y="21" width="4" height="1" fill="#00cc33"/>
  <rect x="13" y="22" width="6" height="1" fill="#00cc33"/>
  <rect x="13" y="23" width="6" height="1" fill="#00cc33"/>
  <rect x="14" y="24" width="4" height="1" fill="#00cc33"/>

  <!-- feet -->
  <rect x="12" y="27" width="3" height="1" fill="#00ff41"/>
  <rect x="11" y="28" width="2" height="1" fill="#00ff41"/>
  <rect x="14" y="28" width="2" height="1" fill="#00ff41"/>

  <rect x="17" y="27" width="3" height="1" fill="#00ff41"/>
  <rect x="17" y="28" width="2" height="1" fill="#00ff41"/>
  <rect x="20" y="28" width="2" height="1" fill="#00ff41"/>
</svg>
